<svg width="256" height="256" viewBox="0 0 256 256" xmlns="http://www.w3.org/2000/svg">
  <defs>
    <linearGradient id="bgGradient" x1="0%" y1="0%" x2="100%" y2="100%">
      <stop offset="0%" style="stop-color:#0078D4;stop-opacity:1" />
      <stop offset="100%" style="stop-color:#106EBE;stop-opacity:1" />
    </linearGradient>
    <linearGradient id="sheetGradient" x1="0%" y1="0%" x2="100%" y2="100%">
      <stop offset="0%" style="stop-color:#FFFFFF;stop-opacity:1" />
      <stop offset="100%" style="stop-color:#F8F9FA;stop-opacity:1" />
    </linearGradient>
    <filter id="shadow" x="-50%" y="-50%" width="200%" height="200%">
      <feDropShadow dx="2" dy="4" stdDeviation="3" flood-color="#000000" flood-opacity="0.15"/>
    </filter>
  </defs>
  
  <!-- 背景圆角矩形 -->
  <rect x="16" y="16" width="224" height="224" rx="32" ry="32" fill="url(#bgGradient)" filter="url(#shadow)"/>
  
  <!-- Excel表格主体 -->
  <rect x="48" y="64" width="160" height="128" rx="8" ry="8" fill="url(#sheetGradient)" stroke="#E1E5E9" stroke-width="2"/>
  
  <!-- 表格网格线 -->
  <!-- 水平线 -->
  <line x1="48" y1="88" x2="208" y2="88" stroke="#E1E5E9" stroke-width="1"/>
  <line x1="48" y1="112" x2="208" y2="112" stroke="#E1E5E9" stroke-width="1"/>
  <line x1="48" y1="136" x2="208" y2="136" stroke="#E1E5E9" stroke-width="1"/>
  <line x1="48" y1="160" x2="208" y2="160" stroke="#E1E5E9" stroke-width="1"/>
  
  <!-- 垂直线 -->
  <line x1="88" y1="64" x2="88" y2="192" stroke="#E1E5E9" stroke-width="1"/>
  <line x1="128" y1="64" x2="128" y2="192" stroke="#E1E5E9" stroke-width="1"/>
  <line x1="168" y1="64" x2="168" y2="192" stroke="#E1E5E9" stroke-width="1"/>
  
  <!-- 表头区域 -->
  <rect x="48" y="64" width="160" height="24" fill="#0078D4" fill-opacity="0.1"/>
  
  <!-- 数据点 -->
  <circle cx="68" cy="100" r="3" fill="#0078D4"/>
  <circle cx="108" cy="100" r="3" fill="#0078D4"/>
  <circle cx="148" cy="100" r="3" fill="#0078D4"/>
  <circle cx="188" cy="100" r="3" fill="#0078D4"/>
  
  <circle cx="68" cy="124" r="3" fill="#107C10"/>
  <circle cx="108" cy="124" r="3" fill="#107C10"/>
  <circle cx="148" cy="124" r="3" fill="#107C10"/>
  <circle cx="188" cy="124" r="3" fill="#107C10"/>
  
  <circle cx="68" cy="148" r="3" fill="#D83B01"/>
  <circle cx="108" cy="148" r="3" fill="#D83B01"/>
  <circle cx="148" cy="148" r="3" fill="#D83B01"/>
  <circle cx="188" cy="148" r="3" fill="#D83B01"/>
  
  <!-- 工具图标 -->
  <g transform="translate(180, 40)">
    <!-- 合并箭头 -->
    <path d="M8 4 L16 8 L8 12 Z" fill="#FFFFFF" opacity="0.9"/>
    <path d="M0 6 L14 6" stroke="#FFFFFF" stroke-width="2" opacity="0.9"/>
  </g>
  
  <g transform="translate(60, 40)">
    <!-- 拆分箭头 -->
    <path d="M8 4 L0 8 L8 12 Z" fill="#FFFFFF" opacity="0.9"/>
    <path d="M2 6 L16 6" stroke="#FFFFFF" stroke-width="2" opacity="0.9"/>
    <path d="M10 2 L10 14" stroke="#FFFFFF" stroke-width="2" opacity="0.9"/>
  </g>
  
  <!-- 底部装饰线 -->
  <rect x="48" y="200" width="160" height="4" rx="2" ry="2" fill="#0078D4" opacity="0.3"/>
</svg>